<svg width="16" height="16" viewBox="0 0 16 16" fill="none" xmlns="http://www.w3.org/2000/svg">
<g clip-path="url(#clip0_762_1703)">
<path fill-rule="evenodd" clip-rule="evenodd" d="M15.7073 14.0737C15.6011 14.1796 15.473 14.315 15.3371 14.4582C14.9981 14.818 14.5746 15.2653 14.3092 15.4467C12.9126 16.401 11.0442 15.9443 9.72265 15.3937C7.97924 14.6673 6.08115 13.3283 4.37687 11.6238C2.67099 9.91922 1.33218 8.02053 0.605776 6.27812C0.0557756 4.95625 -0.401818 3.0875 0.552651 1.69062C0.733901 1.425 1.18218 1.00215 1.54149 0.662497C1.68524 0.527059 1.81962 0.399091 1.92587 0.293184C2.1145 0.10549 2.36978 0.00012207 2.63589 0.00012207C2.90199 0.00012207 3.15727 0.10549 3.3459 0.293184L5.91553 2.86206C6.10312 3.05068 6.20842 3.30589 6.20842 3.57192C6.20842 3.83794 6.10312 4.09315 5.91553 4.28178L5.21553 4.98037C4.98175 5.21244 4.82916 5.51379 4.78046 5.83957C4.73176 6.16535 4.78955 6.49815 4.94524 6.78843C5.90805 8.60564 7.39444 10.0918 9.21181 11.0543C9.50203 11.2099 9.83476 11.2676 10.1605 11.2189C10.4861 11.1701 10.7874 11.0174 11.0192 10.7836L11.7175 10.0849C11.9062 9.89724 12.1614 9.79187 12.4275 9.79187C12.6936 9.79187 12.9489 9.89724 13.1376 10.0849L15.7073 12.6542C15.8949 12.8428 16.0002 13.098 16.0002 13.364C16.0002 13.6299 15.8949 13.8851 15.7073 14.0737Z" fill="#E3E3E3"/>
</g>
<defs>
<clipPath id="clip0_762_1703">
<rect width="16" height="16" fill="white"/>
</clipPath>
</defs>
</svg>
