<svg width="40" height="40" viewBox="0 0 40 40" fill="none" xmlns="http://www.w3.org/2000/svg">
<path d="M29.371 30.0057C27.4543 30.0057 25.8949 28.4463 25.8949 26.5296V20.7567C25.8949 18.84 27.4543 17.2807 29.371 17.2807H38.4286C38.4835 17.2807 38.538 17.2823 38.5923 17.2848V11.5341C38.5923 10.0538 37.3923 8.85376 35.912 8.85376H2.68039C1.20001 8.85367 0 10.0537 0 11.534V35.7523C0 37.2326 1.20001 38.4327 2.68039 38.4327H35.912C37.3923 38.4327 38.5923 37.2326 38.5923 35.7523V30.0016C38.538 30.0041 38.4835 30.0057 38.4286 30.0057H29.371Z" fill="#343E18"/>
<path d="M38.4278 19.1853H29.3702C28.5024 19.1853 27.7988 19.8889 27.7988 20.7567V26.5295C27.7988 27.3974 28.5024 28.1009 29.3702 28.1009H38.4278C39.2956 28.1009 39.9992 27.3974 39.9992 26.5295V20.7567C39.9992 19.8888 39.2956 19.1853 38.4278 19.1853ZM32.4913 25.911C31.2387 25.911 30.2233 24.8956 30.2233 23.643C30.2233 22.3904 31.2387 21.375 32.4913 21.375C33.7439 21.375 34.7593 22.3904 34.7593 23.643C34.7593 24.8956 33.7439 25.911 32.4913 25.911Z" fill="#343E18"/>
<path d="M31.2447 3.94388C30.645 2.12886 28.6876 1.14363 26.8726 1.74328L13.2559 6.24191H32.0039L31.2447 3.94388Z" fill="#343E18"/>
</svg>
