<svg width="48" height="48" viewBox="0 0 48 48" fill="none" xmlns="http://www.w3.org/2000/svg">
<path d="M29.6152 13.1252C29.6152 14.6081 30.8217 15.8146 32.3046 15.8146C33.7875 15.8146 34.994 14.6081 34.994 13.1252C34.994 12.0701 34.383 11.1555 33.4964 10.7152C33.2016 11.4637 33.0381 12.2767 33.0381 13.1271C33.0381 13.5322 32.7098 13.8606 32.3046 13.8606C31.8995 13.8606 31.5711 13.5323 31.5711 13.1271C31.5711 12.1892 31.7341 11.2888 32.03 10.4497C30.6755 10.5877 29.6152 11.735 29.6152 13.1252Z" fill="#343E18"/>
<path d="M36.7502 7.17362C35.7115 7.69244 34.8254 8.46831 34.1803 9.418C35.5321 10.1047 36.4611 11.5081 36.4611 13.1252C36.4611 15.4171 34.5966 17.2816 32.3048 17.2816C30.013 17.2816 28.1485 15.4171 28.1485 13.1252C28.1485 10.6783 30.2641 8.74731 32.7163 8.98947C33.4104 7.83025 34.3855 6.85534 35.5493 6.15906C30.9342 2.75041 24.2855 3.0355 19.9799 7.34125C15.2788 12.0422 15.3179 19.6215 19.9799 24.2833C24.65 28.9535 32.2504 28.955 36.922 24.2833C41.6285 19.5768 41.6133 11.8508 36.7502 7.17362Z" fill="#343E18"/>
<path d="M16.3818 21.7528L0.576115 37.5585C0.280333 37.8542 0.122458 38.2778 0.119365 38.7834L0.0937708 42.5742C0.0888958 43.3142 0.940989 44.1689 1.68246 44.1689C1.81371 44.1689 5.28836 44.1427 5.50371 44.1427C6.13202 44.1343 6.43165 43.6782 6.36733 43.0475L6.11702 40.6169C5.98127 39.2742 6.96368 38.2977 8.29933 38.4331L10.4289 38.6517C10.6282 38.672 10.7907 38.6303 10.8864 38.5347C10.9816 38.4394 11.023 38.277 11.0026 38.0776L10.7847 35.9486C10.6495 34.6114 11.6271 33.6296 12.967 33.7653L15.9753 34.0731C16.1752 34.0931 16.3384 34.0524 16.4331 33.9577L22.5128 27.8781C19.9113 26.6005 17.7141 24.456 16.3818 21.7528Z" fill="#343E18"/>
<path d="M43.213 31.9204H35.6827C35.2783 31.9204 34.9492 32.2494 34.9492 32.6539V34.1208C34.9492 34.5253 35.2782 34.8543 35.6827 34.8543H43.213C43.6174 34.8543 43.9465 34.5253 43.9465 34.1208V32.6539C43.9465 32.2494 43.6174 31.9204 43.213 31.9204Z" fill="#343E18"/>
<path d="M45.0223 19.4531C45.2043 19.2537 45.6602 18.7387 45.7206 18.6739C47.1319 17.1634 47.9055 15.2058 47.9055 13.1271C47.9055 8.64279 44.2572 4.99451 39.7728 4.99451C38.2285 4.99451 36.7824 5.41985 35.5476 6.1586L36.7482 7.17204C37.6582 6.71763 38.6859 6.46151 39.7729 6.46151C43.4485 6.46151 46.4387 9.45176 46.4387 13.1272C46.4387 14.8135 45.8176 16.4026 44.6832 17.6355C44.6238 17.7001 44.1641 18.22 43.9852 18.416L41.8802 16.311C41.6592 22.3192 37.5215 27.3378 31.8672 28.8139V35.3795C31.8672 37.2669 33.4027 38.8023 35.29 38.8023H43.6017C45.4896 38.8023 47.0254 37.2664 47.0254 35.3786V22.8734C47.0254 21.9593 46.6693 21.0999 46.0228 20.4533L45.0223 19.4531ZM45.4117 34.1208C45.4117 35.3342 44.4246 36.3213 43.2113 36.3213H35.681C34.4678 36.3213 33.4806 35.3342 33.4806 34.1208V32.6539C33.4806 31.4406 34.4677 30.4535 35.681 30.4535H43.2113C44.4245 30.4535 45.4117 31.4406 45.4117 32.6539V34.1208Z" fill="#343E18"/>
</svg>
