<svg width="29" height="27" viewBox="0 0 29 27" fill="none" xmlns="http://www.w3.org/2000/svg">
<rect x="-0.5" y="0.5" width="28" height="25.4222" rx="4.5" transform="matrix(-1 0 0 1 28 0)" stroke="white"/>
<path d="M4.64645 14.0647C4.45119 13.8695 4.45119 13.5529 4.64645 13.3576L7.82843 10.1756C8.02369 9.98039 8.34027 9.98039 8.53553 10.1756C8.7308 10.3709 8.7308 10.6875 8.53553 10.8828L5.70711 13.7112L8.53553 16.5396C8.7308 16.7349 8.7308 17.0515 8.53553 17.2467C8.34027 17.442 8.02369 17.442 7.82843 17.2467L4.64645 14.0647ZM24 14.2112L5 14.2112L5 13.2112L24 13.2112L24 14.2112Z" fill="white"/>
</svg>
