<svg width="16" height="16" viewBox="0 0 16 16" fill="none" xmlns="http://www.w3.org/2000/svg">
<g clip-path="url(#clip0_762_1761)">
<path d="M12.4353 15.5911L7.99999 12.8157L3.56471 15.5911C3.40359 15.6932 3.19574 15.6854 3.04059 15.5728C2.88587 15.4606 2.8149 15.2656 2.86159 15.0802L4.13049 10.0041L0.167619 6.64414C0.0211189 6.52145 -0.0360998 6.32186 0.0229627 6.14014C0.0820252 5.95795 0.2459 5.83023 0.436338 5.81695L5.60865 5.45576L7.56512 0.603015C7.70887 0.248702 8.29112 0.248702 8.43487 0.603015L10.3913 5.45576L15.5637 5.81695C15.7541 5.83023 15.918 5.95795 15.977 6.14014C16.0361 6.32186 15.9789 6.52145 15.8324 6.64414L11.8695 10.0041L13.1384 15.0803C13.1851 15.2657 13.1141 15.4607 12.9594 15.5729C12.801 15.6879 12.5938 15.6905 12.4353 15.5911Z" fill="white"/>
</g>
<defs>
<clipPath id="clip0_762_1761">
<rect width="16" height="16" fill="white"/>
</clipPath>
</defs>
</svg>
